<svg xmlns="http://www.w3.org/2000/svg" width="640" height="640" viewBox="0 0 640 640" role="img" aria-label="éś“č™ąč„‰ĺ†˛ cover">
<rect width="640" height="640" rx="40" fill="#07131d"/>
<circle cx="492" cy="132" r="188" fill="#1fd1c2" opacity=".08"/>
<path d="M0 434 C112 366 204 502 328 422 S540 330 640 390 V640 H0Z" fill="#b76cff" opacity=".08"/>
<rect x="94" y="170" width="12" height="50" rx="6" fill="#1fd1c2" opacity="0.35"/><rect x="126" y="153" width="12" height="84" rx="6" fill="#1fd1c2" opacity="0.55"/><rect x="158" y="136" width="12" height="118" rx="6" fill="#1fd1c2" opacity="0.75"/><rect x="190" y="119" width="12" height="152" rx="6" fill="#1fd1c2" opacity="0.35"/><rect x="222" y="102" width="12" height="186" rx="6" fill="#1fd1c2" opacity="0.55"/><rect x="254" y="170" width="12" height="50" rx="6" fill="#1fd1c2" opacity="0.75"/><rect x="286" y="153" width="12" height="84" rx="6" fill="#1fd1c2" opacity="0.35"/><rect x="318" y="136" width="12" height="118" rx="6" fill="#1fd1c2" opacity="0.55"/><rect x="350" y="119" width="12" height="152" rx="6" fill="#1fd1c2" opacity="0.75"/><rect x="382" y="102" width="12" height="186" rx="6" fill="#1fd1c2" opacity="0.35"/><rect x="414" y="170" width="12" height="50" rx="6" fill="#1fd1c2" opacity="0.55"/><rect x="446" y="153" width="12" height="84" rx="6" fill="#1fd1c2" opacity="0.75"/>
<text x="72" y="472" fill="#f4f7f7" font-family="system-ui,sans-serif" font-size="48" font-weight="700">éś“č™ąč„‰ĺ†˛</text>
<text x="74" y="518" fill="#b76cff" font-family="system-ui,sans-serif" font-size="24" letter-spacing="2">NEON PULSE</text>
<text x="74" y="565" fill="#9aa9ad" font-family="system-ui,sans-serif" font-size="20">128 BPM Â· Electronic</text>
</svg>
